<svg id="Capa_1" enable-background="new 0 0 512.003 512.003"  style="fill:white" viewBox="0 0 512.003 512.003" width="512" xmlns="http://www.w3.org/2000/svg"><g><path d="m431.142 162.477-50.071-162.477h-76.614l-48.459 24.229-48.46-24.229h-76.614l-50.072 162.477-62.855 23.047c-8.791 95.987 142.323 118.188 238 117.476 95.594.755 246.891-21.565 238-117.476zm-32.463-3.477h-285.363l8.629-28h268.105zm-198.223-129 55.541 27.771 55.541-27.771h47.385l21.881 71h-249.613l21.881-71zm208.511 220.508c-71.787 29.763-234.152 29.763-305.939-.001-36.25-14.002-49.673-30.673-53.629-44.544l46.262-16.963h320.673l46.263 16.963c-3.956 13.87-17.38 30.542-53.63 44.545z"/><path d="m379.916 328c-35.757 0-66.813 20.506-82.031 50.375-25.017-15.045-58.896-15.1-83.798-.043-15.225-29.846-46.269-50.332-82.008-50.332-122.041 5.049-122.024 178.962.001 184 54.912.409 98.607-49.376 91.254-103.738 18.323-14.961 46.925-14.87 65.327.016-7.335 54.359 36.344 104.13 91.257 103.721 122.042-5.048 122.02-178.962-.002-183.999zm-247.837 154c-34.187 0-62-27.813-62-62 3.406-82.251 120.607-82.228 124 0 0 34.187-27.813 62-62 62zm247.837 0c-34.187 0-62-27.813-62-62 3.406-82.251 120.607-82.228 124 0 0 34.187-27.813 62-62 62z"/></g></svg>